<?xml version="1.0" encoding="UTF-8"?>
<svg xmlns="http://www.w3.org/2000/svg" viewBox="0 0 1095 1095" width="1095" height="1095">
  <path d="M675 612.97C674.47 611.23 675.06 611.71 673.5 612.21C669.04 616.49 664.01 620.14 658.41 622.77C649.97 626.75 639.64 628.2 630.46 626.12C625.25 624.93 619.99 623.64 615.05 621.44C609.68 619.04 605.37 615.19 600.79 611.72C582.91 598.18 570.31 578.43 559.45 559.03C554.69 550.53 546.62 539.23 543.97 530.14C550.51 527.93 554.89 515.71 558.53 510.03C570.06 492.04 579.82 472.91 591.53 455.03C598.51 444.37 605.02 433.32 612.53 423.03C616.74 417.27 621.33 411.79 625.53 406.03C626.64 404.51 628.36 403.49 629.47 401.97C633.52 396.42 638.16 391.24 643.5 387C645.88 385.11 647.57 382.33 650.03 380.53C657.69 374.94 667.18 367.04 676 363.5C686.03 359.48 696.11 355.22 706.69 353.19C710.28 352.5 713.87 352.53 717.47 351.97C728.34 350.27 740.66 350.27 751.53 351.97C753.48 352.27 755.52 351.73 757.47 352.03C767.52 353.6 777.11 356.16 786.69 359.81C802.66 365.9 817.36 373.86 829.5 386C831.68 388.18 834.65 389.54 836.47 392.03C840.24 397.2 844.69 401.85 848.47 407.03C854.97 415.95 859.88 426.37 863.81 436.69C872.1 458.42 872 481.34 872 504.5C872 519.17 872 533.83 872 548.5C872 591.83 872 635.17 872 678.5C872 700.52 874.1 723.9 869.81 745.31C868.82 750.29 866.4 755.07 864.16 759.66C854.93 778.55 839.3 793.19 819.31 800.81C814.55 802.63 809.48 803.22 804.53 804.03C772.04 809.35 743.25 795.16 725.47 768.03C721.64 762.19 717.87 755.13 716.19 748.31C711.91 730.96 714 711.48 714 693.5C714 661.5 714 629.5 714 597.5C714 586.22 715.56 567.32 713.5 557C708.55 559.6 704.57 567.23 701.47 571.97C698.97 575.78 696.17 579.34 693.53 583.03C688.07 590.68 683.92 599.32 678.19 606.69C676.68 608.62 676.62 611.13 675 612.97ZM334 353.15C333 353.27 332 353.38 331 353.5C332 353.38 333 353.27 334 353.15Z" transform="translate(-0.36268 0.08637)" fill="#AC88F8" fill-rule="evenodd" stroke="#FFFFFF" stroke-width="0.25" stroke-linejoin="round"/>
  <path d="M543.97 530.14C546.62 539.23 554.69 550.53 559.45 559.03C570.31 578.43 582.91 598.18 600.79 611.72C605.37 615.19 609.68 619.04 615.05 621.44C619.99 623.64 625.25 624.93 630.46 626.12C639.64 628.2 649.97 626.75 658.41 622.77C664.01 620.14 669.04 616.49 673.5 612.21C675.06 611.71 674.47 611.23 675 612.97C670.19 619.72 666.31 627.3 661.82 634.31C652.29 649.23 642.04 663.47 629.72 676.23C617.86 688.5 601.87 698.68 585.77 704.29C571.8 709.17 557.39 711.79 542.5 711.43C533.5 711.22 524.94 709.75 516.3 707.3C465.06 692.75 438.73 645.43 412.14 603.33C405.3 592.5 399.03 581.33 391.58 570.88C388.63 566.73 385.9 561.19 381.92 558.05C375.39 547.17 363.32 534.25 353.53 525.98C350.52 523.44 348.22 519.94 345.05 517.59C336.45 511.19 327.94 504.89 318.92 498.99C307.71 491.66 287.39 486.73 274.31 484.75C267.66 483.75 259.98 484.79 253.5 485.59C249.59 486.08 245.66 485.67 241.76 486.39C235.73 487.52 229.78 490.46 223.97 491.37C221.99 480.63 225.05 460.68 228.16 450.02C231.31 439.23 234.43 428.48 240 418.52C259.07 384.39 292.58 360.58 331 353.5C332 353.38 333 353.27 334 353.15C347.8 349.96 363.54 349.91 377.54 351.69C391.33 353.45 404.27 356.87 417 362.51C451.8 377.93 474.62 410.25 493.59 441.83C501.74 455.4 510.08 468.87 517.74 482.74C522.25 490.89 527.05 498.99 531.31 507.27C535.16 514.75 538.7 523.63 543.97 530.14ZM381.92 558.05C381.93 560.2 381.93 562.35 381.94 564.5C381.72 564.67 381.5 564.83 381.28 565C381.16 562.83 381.04 560.67 380.92 558.5C381.25 558.35 381.59 558.2 381.92 558.05ZM381.27 607C381.45 617.67 381.63 628.33 381.8 639C380.45 636.33 380.97 632.62 380.93 629.5C380.83 622.19 380.01 614.15 381.27 607ZM382.27 724C382.5 724.17 382.73 724.33 382.97 724.5C382.97 726.83 382.98 729.17 382.99 731.5C382.75 731.67 382.52 731.83 382.28 732C382.28 729.33 382.27 726.67 382.27 724Z" transform="translate(-0.31971 0.26875)" fill="#422478" fill-rule="evenodd" stroke="#666666" stroke-width="0.25" stroke-linejoin="round"/>
  <path d="M381.92 558.05C381.59 558.2 381.25 558.35 380.92 558.5C381.04 560.67 381.16 562.83 381.28 565C381.28 579 381.28 593 381.27 607C380.01 614.15 380.83 622.19 380.93 629.5C380.97 632.62 380.45 636.33 381.8 639C381.96 667.33 382.11 695.67 382.27 724C382.27 726.67 382.28 729.33 382.28 732C382.77 776.16 336.91 808.78 295.5 804.91C269.65 802.5 247 786.72 233.6 764.89C219.48 741.91 223.53 706.74 223.65 680.5C223.83 638.5 223.61 596.5 223.61 554.5C223.61 540.5 223.71 526.5 223.73 512.5C223.74 505.56 222.9 498.23 223.97 491.37C229.78 490.46 235.73 487.52 241.76 486.39C245.66 485.67 249.59 486.08 253.5 485.59C259.98 484.79 267.66 483.75 274.31 484.75C287.39 486.73 307.71 491.66 318.92 498.99C327.94 504.89 336.45 511.19 345.05 517.59C348.22 519.94 350.52 523.44 353.53 525.98C363.32 534.25 375.39 547.17 381.92 558.05Z" fill="#3B1968" fill-rule="evenodd" stroke="#010101" stroke-width="0.25" stroke-linejoin="round"/>
</svg>